# xmcd
#
# Track frame offsets: 
#        150
#        23370
#        48520
#        68763
#        94624
#        110671
#        134520
#        162786
#        183679
#        206621
#        240739
#
# Disc length: 3426 seconds
#
# Revision: 0
# Processed by: cddbd v1.5.2PL0 Copyright (c) Steve Scherf et al.
# Submitted via: ExactAudioCopy v0.95b4
#
DISCID=930d600b
DTITLE=Bill Charlap and Sandy Stewart - Love Is Here To Stay
DYEAR=2005
DGENRE=Jazz
TTITLE0=Love Is Here To Stay
TTITLE1=After You
TTITLE2=The Boy Next Door
TTITLE3=Happiness Is Just A Thing Called Joe - A Sleepin' Bee
TTITLE4=Always
TTITLE5=Here I Am In Love Again
TTITLE6=I've Got A Crush On You - Do It Again
TTITLE7=Where Is Me?
TTITLE8=Dancing On The Ceiling
TTITLE9=It Might As Well Be Spring
TTITLE10=I'll Never Go There Anymore
EXTD=
EXTT0=
EXTT1=
EXTT2=
EXTT3=
EXTT4=
EXTT5=
EXTT6=
EXTT7=
EXTT8=
EXTT9=
EXTT10=
PLAYORDER=
